# xmcd
#
# Track frame offsets:
#	150
#	19180
#	38047
#	54810
#	80085
#	97542
#	119430
#	137387
#	158992
#	176755
#	193437
#	212367
#	235117
#	253772
#	270855
#	294235
#
# Disc length: 4239 seconds
#
# Revision: 1
# Processed by: cddbd v1.5.1PL0 Copyright (c) Steve Scherf et al.
# Submitted via: CDex 1.50Beta5
#
DISCID=ce108d10
DTITLE=北原ミレイ - 北原ミレイ全曲集2002〜2003
DYEAR=2002
DGENRE=World
TTITLE0=北の居酒屋
TTITLE1=ざんげの値打ちもない
TTITLE2=漁歌
TTITLE3=忘れないで
TTITLE4=くらくら
TTITLE5=愛したいの
TTITLE6=愛のサフラン
TTITLE7=終りなき旅路
TTITLE8=石狩挽歌
TTITLE9=納沙布岬
TTITLE10=風の盆
TTITLE11=灯り
TTITLE12=悲歌
TTITLE13=天国のかけら
TTITLE14=夢うた
TTITLE15=遠き故郷へ
EXTD=
EXTT0=
EXTT1=
EXTT2=
EXTT3=
EXTT4=
EXTT5=
EXTT6=
EXTT7=
EXTT8=
EXTT9=
EXTT10=
EXTT11=
EXTT12=
EXTT13=
EXTT14=
EXTT15=
PLAYORDER=
